<svg xmlns="http://www.w3.org/2000/svg" viewBox="0 0 316.58 317.48"><defs><style>.cls-1{fill:#2880ba;}.cls-2{font-size:31.06px;font-family:Rockwell, Rockwell;}.cls-2,.cls-5{fill:#fff;}.cls-3{letter-spacing:-0.09em;}.cls-4{letter-spacing:-0.02em;}</style></defs><title>Asset 2</title><g id="Layer_2" data-name="Layer 2"><g id="Layer_1-2" data-name="Layer 1"><path class="cls-1" d="M256.9,245.72V218.25l49.68-58.18-49.68-58.5V74.11l59.68,72A158.74,158.74,0,0,0,0,147.55L60.46,75v27.31L10.78,160.53,60.46,218.4v27.32L.31,173.77a158.75,158.75,0,0,0,316,.47Z"/><text class="cls-2" transform="translate(77.25 235.64)"><tspan class="cls-3">W</tspan><tspan class="cls-4" x="28.27" y="0">e</tspan><tspan x="45.61" y="0">b Studio</tspan></text><path class="cls-5" d="M77.25,202.37V187.92l51-86.57H91.36v20.34H79.58V86.91H146.5V99.69L94.59,187.92h41.7V165.59h11.79v36.78Z"/><path class="cls-5" d="M158.62,144.11q0-24.38,11.95-40.79t31.15-16.41q19.38,0,31.57,16.41t12.2,41.12q0,25.17-12.41,41.55t-31.54,16.38a36.27,36.27,0,0,1-22.43-7.77q-10.23-7.75-15.36-21.64A82.59,82.59,0,0,1,158.62,144.11Zm13.82.08q0,18.44,8.09,30.9t21.25,12.47q13,0,21.43-12.75t8.39-30.45q0-17.87-8.54-30.22T201.6,101.79q-12.85,0-21,12.15T172.44,144.19Z"/></g></g></svg>