<svg xmlns="http://www.w3.org/2000/svg" viewBox="0 0 309.63 310.52"><defs><style>.cls-1{fill:#fff;}.cls-2{font-size:30.38px;font-family:Rockwell, Rockwell;letter-spacing:-0.09em;}.cls-2,.cls-5{fill:#2880ba;}.cls-3{letter-spacing:-0.02em;}.cls-4{letter-spacing:0em;}</style></defs><title>Asset 1</title><g id="Layer_2" data-name="Layer 2"><g id="Layer_1-2" data-name="Layer 1"><path class="cls-1" d="M251.26,240.33V213.46l48.6-56.9-48.6-57.22V72.48l58.37,70.39A155.26,155.26,0,0,0,0,144.31L59.13,73.38v26.71L10.54,157l48.59,56.6v26.72L.31,170a155.26,155.26,0,0,0,309.08.47Z"/><text class="cls-2" transform="translate(75.55 230.47)">W<tspan class="cls-3" x="27.65" y="0">e</tspan><tspan class="cls-4" x="44.61" y="0">b Studio</tspan></text><path class="cls-5" d="M75.55,197.93V183.8l49.9-84.67H89.35V119H77.83V85h65.46V97.5L92.51,183.8H133.3V162h11.53v36Z"/><path class="cls-5" d="M155.14,141q0-23.85,11.69-39.9t30.46-16q19,0,30.88,16t11.93,40.22q0,24.63-12.13,40.64t-30.85,16a35.46,35.46,0,0,1-21.94-7.6q-10-7.59-15-21.17A80.6,80.6,0,0,1,155.14,141Zm13.52.08q0,18,7.91,30.22t20.78,12.2q12.75,0,21-12.48t8.21-29.78q0-17.48-8.36-29.55t-21-12.08q-12.59,0-20.55,11.88T168.66,141Z"/></g></g></svg>